<svg width="30" height="30" fill="none" xmlns="http://www.w3.org/2000/svg"><path fill-rule="evenodd" clip-rule="evenodd" d="M7.193 8.75a9.988 9.988 0 016.557-3.673V8.75H7.193zm-2.116 5h8.673v-2.5H5.727a9.933 9.933 0 00-.65 2.5zm8.673 2.5H5.077c.11.873.33 1.712.65 2.5h8.023v-2.5zm0 8.673a9.987 9.987 0 01-6.557-3.673h6.557v3.673zM25 15c0 5.1-3.817 9.308-8.75 9.923V5.077C21.183 5.692 25 9.9 25 15zM2.5 15C2.5 8.096 8.096 2.5 15 2.5S27.5 8.096 27.5 15 21.904 27.5 15 27.5 2.5 21.904 2.5 15z" fill="#E3000F"/></svg>