<svg width="18" height="18" fill="none" xmlns="http://www.w3.org/2000/svg"><path fill-rule="evenodd" clip-rule="evenodd" d="M6.75 4.5a3 3 0 013-3H12a.75.75 0 01.75.75V4.5a.75.75 0 01-.75.75h-1.5V6h1.875a.75.75 0 01.74.873l-.375 2.25a.75.75 0 01-.74.627h-1.5v6a.75.75 0 01-.75.75H7.5a.75.75 0 01-.75-.75v-6H6A.75.75 0 015.25 9V6.75A.75.75 0 016 6h.75V4.5zm0 3v.75h.75a.75.75 0 01.75.75v6H9V9a.75.75 0 01.75-.75h1.615l.125-.75H9.75A.75.75 0 019 6.75V4.5a.75.75 0 01.75-.75h1.5V3h-1.5a1.5 1.5 0 00-1.5 1.5v2.25a.75.75 0 01-.75.75h-.75z" fill="#000"/></svg>