<svg width="36" height="36" fill="none" xmlns="http://www.w3.org/2000/svg"><path fill-rule="evenodd" clip-rule="evenodd" d="M24.823 18.245l-6.755 9.835-6.806-9.802a8.864 8.864 0 01-.325-7.178c2.636-6.725 11.49-6.748 14.165-.021a8.88 8.88 0 01-.279 7.166zm2.474 1.42l-7.626 11.599v.002l-.075.15-.715 1.07a.918.918 0 01-1.672.006l-.643-1.064-.075-.15-.002-.002L8.8 19.718c-1.523-3.023-1.686-6.626-.445-9.793C11.954.74 24.033.723 27.678 9.89c1.254 3.151 1.114 6.748-.38 9.774zm-7.83-5.59c.002.833-.624 1.51-1.398 1.512-.774.002-1.403-.672-1.405-1.506-.002-.834.623-1.511 1.397-1.513.774-.002 1.404.672 1.406 1.506zm2.803-.008c.006 2.502-1.872 4.534-4.194 4.54-2.322.006-4.209-2.018-4.215-4.52-.006-2.5 1.871-4.533 4.193-4.539 2.322-.005 4.21 2.018 4.216 4.52z" fill="#E3000F"/></svg>