<svg width="36" height="36" fill="none" xmlns="http://www.w3.org/2000/svg"><path fill-rule="evenodd" clip-rule="evenodd" d="M7.5 6A4.5 4.5 0 003 10.5v15A4.5 4.5 0 007.5 30h21a4.5 4.5 0 004.5-4.5v-15A4.5 4.5 0 0028.5 6h-21zM6.137 9.873A1.5 1.5 0 017.5 9h21a1.5 1.5 0 011.363.873l-10.942 8.51a1.5 1.5 0 01-1.842 0L6.137 9.873zM6 13.567v8.73l5.419-4.515L6 13.567zm.124 12.532A1.5 1.5 0 007.5 27h21a1.5 1.5 0 001.376-.901l-7.719-6.432-1.394 1.084a4.5 4.5 0 01-5.526 0l-1.394-1.084-7.719 6.432zM30 22.297v-8.73l-5.419 4.215L30 22.297z" fill="#E3000F"/></svg>