<svg width="20" height="20" fill="none" xmlns="http://www.w3.org/2000/svg"><g clip-path="url(#clip0_50_696)" fill="#fff"><path d="M.417 3.717c2.745 2.325 7.562 6.414 8.977 7.69.19.172.394.26.606.26.211 0 .415-.087.604-.259 1.417-1.276 6.233-5.366 8.979-7.691a.416.416 0 00.058-.575 1.655 1.655 0 00-1.308-.642H1.667c-.511 0-.988.234-1.308.642a.416.416 0 00.058.575zm19.342 1.26a.415.415 0 00-.445.06 1204.66 1204.66 0 00-5.952 5.074.416.416 0 00.011.64c1.66 1.33 4.161 3.159 5.967 4.458a.416.416 0 00.66-.338V5.355a.416.416 0 00-.241-.378zM.66 15.209c1.807-1.3 4.308-3.128 5.968-4.458a.416.416 0 00.011-.64A1106.241 1106.241 0 00.686 5.036.417.417 0 000 5.354v9.517a.417.417 0 00.66.338z"/><path d="M19.49 16.343c-1.745-1.248-4.958-3.575-6.876-5.132a.418.418 0 00-.537.01c-.376.328-.691.605-.914.806-.687.619-1.639.619-2.326-.001-.223-.2-.538-.478-.914-.806a.415.415 0 00-.536-.009C5.475 12.763 2.258 15.092.51 16.343a.418.418 0 00-.063.622c.316.34.76.535 1.219.535h16.666c.459 0 .903-.195 1.22-.535a.417.417 0 00-.064-.622z"/></g><defs><clipPath id="clip0_50_696"><path fill="#fff" d="M0 0h20v20H0z"/></clipPath></defs></svg>