<svg width="30" height="30" fill="none" xmlns="http://www.w3.org/2000/svg"><path fill-rule="evenodd" clip-rule="evenodd" d="M6.25 27.5h17.5a3.75 3.75 0 003.75-3.75V6.25a3.75 3.75 0 00-3.75-3.75H6.25A3.75 3.75 0 002.5 6.25v17.5a3.75 3.75 0 003.75 3.75zM25 23.75V17.5H5v6.25c0 .69.56 1.25 1.25 1.25h17.5c.69 0 1.25-.56 1.25-1.25zM5 15h20V6.25C25 5.56 24.44 5 23.75 5H6.25C5.56 5 5 5.56 5 6.25V15zm3.75 5a1.25 1.25 0 100 2.5H15a1.25 1.25 0 100-2.5H8.75zm10 0a1.25 1.25 0 100 2.5H20a1.25 1.25 0 100-2.5h-1.25z" fill="#E3000F"/></svg>