<svg width="36" height="36" fill="none" xmlns="http://www.w3.org/2000/svg"><path fill-rule="evenodd" clip-rule="evenodd" d="M9.447 6.295v.002-.002zm.064.102l3.007 4.737c-.363.341-.76.68-1.186 1.043a54.8 54.8 0 00-1.165 1.013 2.84 2.84 0 00-.554 3.53c3.473 6.053 8.21 8.808 10.33 9.797 1.277.596 2.664.125 3.437-.848l2.08-2.623.005-.002a.05.05 0 01.01 0l.008.004c1.212.74 2.904 1.748 4.458 2.6-.28 1.669-.92 2.64-1.627 3.235-.742.624-1.702.952-2.773 1.07-2.137.237-4.307-.405-4.788-.561-.53-.27-3.442-1.787-6.553-4.246-3.207-2.536-6.423-5.915-7.653-9.792-.899-2.832-.56-4.826.147-6.2.683-1.33 1.788-2.232 2.817-2.757zM8.424 3.593c1.417-.666 2.882.028 3.564 1.103l3.146 4.957c.636 1.002.68 2.466-.354 3.47-.444.43-1.06.959-1.634 1.45-.314.27-.616.53-.87.755 2.99 5.154 6.986 7.54 8.803 8.411l2.024-2.55a3.03 3.03 0 013.951-.694 113.73 113.73 0 004.356 2.54c1.001.55 1.718 1.694 1.515 2.986-.365 2.32-1.317 4.01-2.673 5.151-1.334 1.121-2.923 1.597-4.378 1.758-2.863.317-5.602-.541-6.102-.707a2.456 2.456 0 01-.344-.143c-.537-.27-3.7-1.904-7.096-4.588-3.359-2.656-7.147-6.498-8.65-11.235-1.104-3.479-.778-6.3.337-8.469 1.095-2.13 2.868-3.474 4.405-4.195zm13.642-.456a1.505 1.505 0 00-1.993.736 1.495 1.495 0 00.74 1.986c3.489 1.596 7.483 4.596 9.308 8.736a1.505 1.505 0 001.98.769 1.495 1.495 0 00.772-1.974c-2.23-5.057-6.942-8.486-10.807-10.253zM20.953 8.45a1.505 1.505 0 00-2.016.67c-.37.739-.07 1.639.672 2.008 1.412.704 2.39 1.367 3.179 2.153.789.787 1.454 1.76 2.16 3.168a1.505 1.505 0 002.016.67 1.495 1.495 0 00.672-2.01c-.797-1.588-1.634-2.86-2.723-3.945-1.09-1.086-2.366-1.92-3.96-2.714z" fill="#E3000F"/></svg>