<svg width="53" height="48" fill="none" xmlns="http://www.w3.org/2000/svg"><path d="M13.298 27.759c2.184.643 3.855 1.863 5.011 3.663 1.285 1.67 1.927 3.727 1.927 6.168 0 3.085-.963 5.59-2.89 7.518C15.418 47.036 13.04 48 10.214 48c-3.083 0-5.589-.964-7.516-2.892C.9 43.052 0 40.546 0 37.59c0-1.542.128-3.02.385-4.433.386-1.542 1.093-3.727 2.12-6.555L10.6 0h9.25l-6.552 27.759zm32.764 0c2.184.643 3.854 1.863 5.01 3.663C52.359 33.092 53 35.149 53 37.59c0 3.085-.964 5.59-2.89 7.518C48.181 47.036 45.804 48 42.977 48c-3.084 0-5.589-.964-7.516-2.892-1.799-2.056-2.698-4.562-2.698-7.518 0-1.542.128-3.02.385-4.433.386-1.542 1.092-3.727 2.12-6.555L43.364 0h9.25l-6.552 27.759z" fill="#fff"/></svg>