<svg width="60" height="60" fill="none" xmlns="http://www.w3.org/2000/svg"><path fill-rule="evenodd" clip-rule="evenodd" d="M15 5c1.38 0 2.5 1.092 2.5 2.439v6.82l6.443-2.933a2.554 2.554 0 012.4.153 2.425 2.425 0 011.157 2.058v9.756h5V8.659c0-1.348 1.12-2.44 2.5-2.44h12.5c1.38 0 2.5 1.092 2.5 2.44v41.463h2.5c1.38 0 2.5 1.092 2.5 2.439S53.88 55 52.5 55h-45C6.12 55 5 53.908 5 52.561s1.12-2.439 2.5-2.439H10V19.228c0-.948.563-1.81 1.443-2.21l1.057-.482V7.44C12.5 6.092 13.62 5 15 5zm30 45.122V11.098h-7.5v12.195c1.38 0 2.5 1.092 2.5 2.439v24.39h5zM35 28.171H25v21.951h10V28.171zM20 50.122v-24.39c0-1.347 1.12-2.44 2.5-2.44v-5.926L15 20.781v29.341h5z" fill="#E3000F"/></svg>