<svg width="60" height="60" fill="none" xmlns="http://www.w3.org/2000/svg"><path fill-rule="evenodd" clip-rule="evenodd" d="M10 11.249c0-.69.559-1.249 1.25-1.249H35a2.5 2.5 0 012.5 2.5v25h-9.007a2.624 2.624 0 00-2.623 2.624v1.506A8.37 8.37 0 0117.5 50a7.5 7.5 0 01-7.5-7.5V11.249zM5 35V11.249A6.25 6.25 0 0111.25 5H35a7.5 7.5 0 017.5 7.5v25h9.876A2.624 2.624 0 0155 40.124C55 48.372 48.184 55 40 55H17.5c-6.808 0-12.345-5.443-12.497-12.214H5V35zm35 15H27.926a13.306 13.306 0 002.916-7.5h18.862C48.616 46.789 44.659 50 40 50zM17.5 27.5a2.5 2.5 0 000 5H30a2.5 2.5 0 000-5H17.5zM15 20a2.5 2.5 0 012.5-2.5H30a2.5 2.5 0 010 5H17.5A2.5 2.5 0 0115 20z" fill="#fff"/></svg>