<svg width="60" height="60" fill="none" xmlns="http://www.w3.org/2000/svg"><g clip-path="url(#clip0_48_81)"><path fill-rule="evenodd" clip-rule="evenodd" d="M26.312 9.733a7.197 7.197 0 00-7.279 7.28l.107 22.013c.032 6.493 5.4 11.862 11.894 11.893 6.29.03 11.291-4.97 11.261-11.26l-.1-20.781a2.253 2.253 0 012.33-2.278 2.435 2.435 0 012.354 2.405l.1 20.781c.044 8.836-6.981 15.861-15.817 15.818C22.04 55.56 14.5 48.02 14.455 38.898l-.107-22.014c-.032-6.611 5.225-11.868 11.836-11.836 6.825.034 12.468 5.676 12.5 12.501l.104 21.176a6.977 6.977 0 01-7.057 7.057c-4.07-.02-7.434-3.384-7.454-7.453l-.087-17.902a2.253 2.253 0 012.331-2.277 2.435 2.435 0 012.354 2.405l.087 17.902a2.672 2.672 0 002.64 2.64 2.472 2.472 0 002.5-2.5L34 17.421c-.02-4.197-3.49-7.667-7.688-7.688z" fill="#E3000F"/></g><defs><clipPath id="clip0_48_81"><path fill="#fff" d="M0 0h60v60H0z"/></clipPath></defs></svg>