<svg width="60" height="60" fill="none" xmlns="http://www.w3.org/2000/svg"><path fill-rule="evenodd" clip-rule="evenodd" d="M52.5 23.894c0-3.742-3.014-6.813-6.854-7.125l-1.59-4.43c-1.382-3.852-5.853-5.828-9.829-4.345l-23.888 8.913a2.54 2.54 0 00-.645.353C6.942 18.32 5 20.89 5 23.894V45.35c0 3.95 3.358 7.151 7.5 7.151H45c4.142 0 7.5-3.202 7.5-7.151v-5.406c1.495-.824 2.5-2.365 2.5-4.13v-4.767c0-1.765-1.005-3.306-2.5-4.13v-3.022zm-5 2.384v-2.384c0-1.316-1.12-2.383-2.5-2.383H12.5c-1.38 0-2.5 1.067-2.5 2.383V45.35c0 1.316 1.12 2.383 2.5 2.383H45c1.38 0 2.5-1.067 2.5-2.383v-4.77H45c-4.142 0-7.5-3.202-7.5-7.151 0-3.95 3.358-7.152 7.5-7.152h2.5zm-8.175-12.396l1.027 2.86H24.5l11.549-4.308c1.325-.495 2.816.164 3.276 1.448zM42.5 33.43c0-1.317 1.12-2.384 2.5-2.384h5v4.767h-5c-1.38 0-2.5-1.067-2.5-2.383z" fill="#E3000F"/></svg>