<svg width="36" height="36" viewBox="0 0 36 36" fill="none" xmlns="http://www.w3.org/2000/svg">
<path fill-rule="evenodd" clip-rule="evenodd" d="M9.64286 6C9.18045 6 8.74389 6.21327 8.45966 6.57803L3.31681 13.178C2.86281 13.7606 2.90053 14.5871 3.4057 15.1259L16.9057 29.5259C17.1893 29.8284 17.5854 30 18 30C18.4146 30 18.8107 29.8284 19.0943 29.5259L32.5943 15.1259C33.0995 14.5871 33.1372 13.7606 32.6832 13.178L27.5403 6.57803C27.2561 6.21327 26.8196 6 26.3571 6H9.64286ZM8.03799 12L10.3757 9H25.6244L27.962 12H8.03799ZM7.39985 15L18 26.3068L28.6002 15H7.39985Z" fill="#E3000F"/>
</svg>
