<svg width="36" height="36" fill="none" xmlns="http://www.w3.org/2000/svg"><path fill-rule="evenodd" clip-rule="evenodd" d="M21.423 3.47a1.5 1.5 0 01.222 1.759l-.065.115c-.436.784-.822 1.477-.81 2.344.013.81.596 2.283 2.53 3.916 2.62 2.209 3.913 4.933 4.553 7.067.321 1.07.482 2.005.563 2.68a12.606 12.606 0 01.084 1.113v.033s0 .003-1.5.003h1.5C28.5 28.3 23.799 33 18 33S7.5 28.3 7.5 22.5c0-2.894.406-5.42.983-7.294.287-.932.63-1.751 1.018-2.386a4.45 4.45 0 01.691-.886c.259-.249.64-.534 1.145-.647a1.5 1.5 0 011.818 1.274c.048.379.205.934.456 1.52-.013-.996.06-2.052.264-3.113.567-2.957 2.174-6.058 5.804-7.818a1.5 1.5 0 011.744.32zM25.5 22.503a7.5 7.5 0 01-15-.004c0-2.563.352-4.74.813-6.29.118.217.244.43.377.634.753 1.169 2.089 2.656 3.977 2.656a1.5 1.5 0 001.439-1.923c-.39-1.325-.733-3.704-.285-6.045.192-.998.52-1.97 1.043-2.85.304 1.67 1.368 3.414 3.502 5.214 2.048 1.729 3.087 3.88 3.614 5.636a13.1 13.1 0 01.458 2.177 9.55 9.55 0 01.061.764l.001.03v.001z" fill="#E3000F"/></svg>