<svg width="36" height="36" fill="none" xmlns="http://www.w3.org/2000/svg"><path fill-rule="evenodd" clip-rule="evenodd" d="M3 18c0 8.284 6.716 15 15 15 8.284 0 15-6.716 15-15 0-8.284-6.716-15-15-15C9.716 3 3 9.716 3 18zm3 0c0-6.627 5.373-12 12-12s12 5.373 12 12-5.373 12-12 12S6 24.627 6 18zm7.5 1.5a1.5 1.5 0 00-3 0 7.5 7.5 0 0015 0 1.5 1.5 0 00-3 0 4.5 4.5 0 11-9 0zM12 15a1.5 1.5 0 001.5-1.5 1.5 1.5 0 003 0 3 3 0 10-6 0A1.5 1.5 0 0012 15zm10.5-1.5a1.5 1.5 0 01-3 0 3 3 0 116 0 1.5 1.5 0 01-3 0z" fill="#E3000F"/></svg>