<svg width="18" height="18" fill="none" xmlns="http://www.w3.org/2000/svg"><path fill-rule="evenodd" clip-rule="evenodd" d="M9.603 4.891c-.427.677-.571 1.47-.571 1.847a.75.75 0 01-.33.62.757.757 0 01-.703.075c-.152-.06-.32-.122-.503-.188-.474-.172-1.04-.377-1.636-.684a10.715 10.715 0 01-2.01-1.368c.009.282.071.54.176.778.246.558.766 1.109 1.628 1.622a.747.747 0 01-.05 1.31l-.002.001-.002.002-.005.002-.013.006a2.125 2.125 0 01-.171.074c-.11.043-.263.098-.455.153a5.654 5.654 0 01-.73.155c.16.568.52.922.906 1.19.228.157.448.273.669.39l.165.088c.12.064.28.152.41.256.102.08.397.33.397.755 0 .271-.124.482-.202.595a1.934 1.934 0 01-.33.356c-.244.21-.572.413-.96.578a5.38 5.38 0 01-1.621.395c.051.027.106.053.163.078.549.236 1.35.332 2.316.245 1.915-.173 4.186-1.04 5.747-2.401 1.197-1.373 1.704-2.732 1.915-3.739.107-.51.138-.93.143-1.217a4.265 4.265 0 00-.011-.397l-.001-.014a.745.745 0 01.13-.518l-.13.52v.001l.13-.521 1.386.634c-.012.017.01-.016 0 0 0 0 .004.197.002.322a8.04 8.04 0 01-.174 1.495c-.258 1.229-.873 2.847-2.287 4.454a.766.766 0 01-.067.067c-1.829 1.614-4.433 2.604-6.647 2.804-1.105.1-2.186.01-3.05-.362-.895-.385-1.585-1.095-1.72-2.16a.745.745 0 01.227-.633.756.756 0 01.645-.198c.98.162 1.776-.003 2.31-.23.053-.023.15-.069.15-.069s-.372-.212-.566-.347c-.795-.55-1.64-1.48-1.64-3.104a.75.75 0 01.753-.748c.055 0 .108-.001.16-.003a4.27 4.27 0 01-.898-1.287c-.422-.96-.4-2.013.039-3.103a.756.756 0 011.232-.251c1.082 1.075 1.93 1.65 2.638 2.016.407.21.756.349 1.104.477.121-.51.332-1.082.667-1.613.618-.98 1.684-1.847 3.342-1.847 1.028 0 1.69.503 2.107.848l.132.11c.096.08.159.133.21.17a4.05 4.05 0 01.927-.326c.292-.055.713-.072 1.06.204.364.29.407.707.394.954a2.49 2.49 0 01-.172.734c-.167.44-.431.91-.638 1.248-.09.148-.174.277-.24.378.013.163-.002-.015 0 0l-1.386-.634.001-.002.004-.006.02-.027a10.938 10.938 0 00.313-.486 8.19 8.19 0 00.385-.695 6.257 6.257 0 00-.175.084c-.461.203-.876.084-1.168-.08-.2-.113-.406-.287-.555-.412a10.703 10.703 0 00-.077-.064c-.352-.292-.664-.502-1.142-.502-1.033 0-1.661.505-2.065 1.145z" fill="#333"/></svg>