<svg width="130" height="130" viewBox="0 0 130 130" fill="none" xmlns="http://www.w3.org/2000/svg">
<circle cx="65" cy="65" r="64.5" stroke="white"/>
<circle cx="65" cy="65" r="50" fill="#E3000F"/>
<path d="M65 40C51.1931 40 40 51.1929 40 65C40 78.8071 51.1931 90 65 90C78.8069 90 90 78.8071 90 65C90 51.1929 78.8069 40 65 40ZM73.6406 66.3252L61.1406 74.1377C60.8877 74.2956 60.6001 74.375 60.3125 74.375C60.052 74.375 59.791 74.3102 59.5549 74.1789C59.0582 73.9035 58.75 73.3809 58.75 72.8125V57.1875C58.75 56.6191 59.0582 56.0965 59.5549 55.8211C60.0516 55.5441 60.6589 55.5609 61.1406 55.8623L73.6406 63.6748C74.0973 63.9609 74.375 64.4614 74.375 65C74.375 65.5386 74.0973 66.0392 73.6406 66.3252Z" fill="white"/>
</svg>
