<svg width="18" height="18" fill="none" xmlns="http://www.w3.org/2000/svg"><path fill-rule="evenodd" clip-rule="evenodd" d="M8.625 2.25c-1.096 0-2.655.425-3.954 1.36-1.325.954-2.421 2.476-2.421 4.64 0 1.3.436 2.287.876 2.947.19.285.381.51.539.676l-.643 2.57a.75.75 0 001.063.853l2.707-1.353c1.533.513 3.633.338 5.38-.465 1.916-.88 3.578-2.601 3.578-5.228 0-2.368-1.208-3.904-2.704-4.813-1.46-.886-3.198-1.187-4.421-1.187zm-3.397 9.557a.75.75 0 00-.274-.779l-.002-.002c-.005-.004-.015-.011-.028-.023a3.421 3.421 0 01-.55-.638A3.756 3.756 0 013.75 8.25c0-1.586.779-2.69 1.798-3.423C6.593 4.075 7.846 3.75 8.625 3.75c1.027 0 2.476.262 3.642.97 1.128.684 1.983 1.773 1.983 3.53 0 1.873-1.15 3.152-2.704 3.865-1.59.73-3.427.78-4.5.32a.75.75 0 00-.631.02l-1.542.77.355-1.418zm1.966-6.509a.57.57 0 01.718.234l.596 1.005a.548.548 0 01-.106.694 8.337 8.337 0 01-.348.285l-.185.148C8.43 8.708 9.225 9.2 9.589 9.381l.437-.504a.636.636 0 01.815-.125c.238.151.567.355.866.525.2.114.335.345.281.604-.097.463-.307.799-.596 1.022-.283.22-.613.31-.912.337a3.208 3.208 0 01-1.24-.163.494.494 0 01-.07-.03 8.805 8.805 0 01-1.406-.945c-.662-.544-1.4-1.328-1.661-2.282-.193-.702-.099-1.266.15-1.696.244-.424.62-.686.94-.826z" fill="#333"/></svg>