<svg width="30" height="30" fill="none" xmlns="http://www.w3.org/2000/svg"><path fill-rule="evenodd" clip-rule="evenodd" d="M7.5 11.25H25v2.5H5v-2.5h2.5zm11.25 5v1.25a1.25 1.25 0 102.5 0v-1.25H25v7.5H5v-7.5h3.75v1.25a1.25 1.25 0 102.5 0v-1.25h7.5zM25 8.75h-5V7.5a3.75 3.75 0 00-3.75-3.75h-2.5A3.75 3.75 0 0010 7.5v1.25H5a2.5 2.5 0 00-2.5 2.5v12.5a2.5 2.5 0 002.5 2.5h20a2.5 2.5 0 002.5-2.5v-12.5a2.5 2.5 0 00-2.5-2.5zm-8.75 0h1.25V7.5c0-.69-.56-1.25-1.25-1.25h-2.5c-.69 0-1.25.56-1.25 1.25v1.25h3.75z" fill="#E3000F"/></svg>