<svg width="30" height="30" fill="none" xmlns="http://www.w3.org/2000/svg"><path fill-rule="evenodd" clip-rule="evenodd" d="M7.5 2.5c.69 0 1.25.546 1.25 1.22v3.41l3.221-1.467c.387-.176.84-.147 1.2.077.36.224.579.611.579 1.028v4.878h2.5V4.33c0-.673.56-1.22 1.25-1.22h6.25c.69 0 1.25.547 1.25 1.22v20.732h1.25c.69 0 1.25.546 1.25 1.22 0 .673-.56 1.219-1.25 1.219H3.75c-.69 0-1.25-.546-1.25-1.22 0-.673.56-1.219 1.25-1.219H5V9.614c0-.474.281-.905.721-1.105l.529-.24v-4.55c0-.673.56-1.219 1.25-1.219zm15 22.561V5.549h-3.75v6.097c.69 0 1.25.546 1.25 1.22V25.06h2.5zm-5-10.976h-5v10.976h5V14.085zM10 25.061V12.866c0-.674.56-1.22 1.25-1.22V8.683L7.5 10.39v14.671H10z" fill="#E3000F"/></svg>