<svg width="30" height="30" fill="none" xmlns="http://www.w3.org/2000/svg"><g clip-path="url(#clip0_256_87)"><path fill-rule="evenodd" clip-rule="evenodd" d="M13.156 4.867a3.598 3.598 0 00-3.64 3.639l.054 11.007c.016 3.247 2.7 5.93 5.947 5.947a5.567 5.567 0 005.63-5.63l-.05-10.391a1.127 1.127 0 011.166-1.14 1.218 1.218 0 011.176 1.204l.05 10.39a7.82 7.82 0 01-7.908 7.91c-4.56-.023-8.331-3.794-8.353-8.354L7.174 8.442a5.85 5.85 0 015.918-5.918c3.412.017 6.234 2.838 6.25 6.25l.052 10.589a3.489 3.489 0 01-3.529 3.528c-2.034-.01-3.717-1.692-3.726-3.726l-.044-8.951a1.127 1.127 0 011.166-1.14 1.218 1.218 0 011.177 1.204l.043 8.95c.003.721.6 1.317 1.32 1.32a1.236 1.236 0 001.25-1.25L17 8.712c-.01-2.1-1.745-3.834-3.844-3.844z" fill="#E3000F"/></g><defs><clipPath id="clip0_256_87"><path fill="#fff" d="M0 0h30v30H0z"/></clipPath></defs></svg>