<svg width="30" height="30" fill="none" xmlns="http://www.w3.org/2000/svg"><path fill-rule="evenodd" clip-rule="evenodd" d="M11.25 5a1.25 1.25 0 100-2.5h-7.5c-.69 0-1.25.56-1.25 1.25v7.5a1.25 1.25 0 102.5 0V5h6.25zM5 18.75a1.25 1.25 0 10-2.5 0v7.5c0 .69.56 1.25 1.25 1.25h7.5a1.25 1.25 0 100-2.5H5v-6.25zm12.5 7.5c0-.69.56-1.25 1.25-1.25H25v-6.25a1.25 1.25 0 112.5 0v7.5c0 .69-.56 1.25-1.25 1.25h-7.5c-.69 0-1.25-.56-1.25-1.25zm7.5-15a1.25 1.25 0 102.5 0v-7.5c0-.69-.56-1.25-1.25-1.25h-7.5a1.25 1.25 0 100 2.5H25v6.25z" fill="#E3000F"/></svg>