<svg width="24" height="24" fill="none" xmlns="http://www.w3.org/2000/svg"><path fill-rule="evenodd" clip-rule="evenodd" d="M20.72 3.303a4.312 4.312 0 00-6.1 0l-3.492 3.493a1.008 1.008 0 00-.15-.063L6.973 5.397a1 1 0 00-1.023.242L2.277 9.31a1 1 0 00.293 1.617l3.488 1.588c.034.239.142.468.326.651l4.472 4.473c.183.183.413.292.651.325l1.588 3.489a1 1 0 001.617.292l3.672-3.671a1 1 0 00.241-1.023l-1.335-4.007a1.024 1.024 0 00-.064-.15l3.493-3.492a4.312 4.312 0 000-6.099zm-7.476 13.65a1.04 1.04 0 00-.025-.051l2.436-2.436.877 2.63-2.214 2.215-1.074-2.358zm-6.123-6.15l2.436-2.436-2.631-.877L4.71 9.705l2.359 1.073.05.025zm9.362-6.436a2.313 2.313 0 013.172 3.172l-3.172-3.172zM15.02 5.732l-6.621 6.622 3.27 3.27 6.621-6.621-3.27-3.27zm-5.643 11.56a1 1 0 010 1.415l-1.67 1.67a1 1 0 01-1.414-1.415l1.67-1.67a1 1 0 011.414 0zm-3-.585a1 1 0 10-1.414-1.414l-1.67 1.67a1 1 0 001.414 1.414l1.67-1.67z" fill="#E3000F"/></svg>