<svg width="24" height="24" fill="none" xmlns="http://www.w3.org/2000/svg"><path fill-rule="evenodd" clip-rule="evenodd" d="M12 4a7.997 7.997 0 00-6.93 4H3a1 1 0 00-.923 1.385l1.073 2.57-1.077 2.671A1 1 0 003 16h2.07A7.997 7.997 0 0012 20a7.997 7.997 0 006.93-4H21a1 1 0 00.922-1.388l-1.116-2.646 1.11-2.543a1 1 0 00-.913-1.4c-.794-.002-1.176-.004-1.354-.006h-.014l-.021-.003h-.001a4.61 4.61 0 00-.242-.008l-.44-.003A7.997 7.997 0 0012 4zm-6 8a6 6 0 1112 0 6 6 0 01-12 0zm9.308-1.41a1 1 0 00-1.616-1.18l-2.141 2.938-.767-.969a1 1 0 00-1.568 1.242l1.583 2a1 1 0 001.592-.032l2.917-4zm4.111-2.575h-.005c.021-.002.028-.002.005 0z" fill="#E3000F"/></svg>