<svg width="24" height="24" fill="none" xmlns="http://www.w3.org/2000/svg"><path fill-rule="evenodd" clip-rule="evenodd" d="M3 5.036C3 3.359 4.343 2 6 2h12c1.657 0 3 1.36 3 3.036v10.892a3.04 3.04 0 01-1.658 2.716l-6 3.036a2.968 2.968 0 01-2.684 0l-6-3.036A3.04 3.04 0 013 15.928V5.036zm3-1.012c-.552 0-1 .453-1 1.012v10.892c0 .384.214.734.553.905l6 3.036a.99.99 0 00.894 0l6-3.036c.339-.171.553-.521.553-.905V5.036c0-.559-.448-1.012-1-1.012H6zm6.758 3.513c-.246-.716-1.27-.716-1.516 0l-.541 1.574H9.052c-.784 0-1.1 1-.457 1.442l1.303.894-.517 1.503c-.249.723.58 1.34 1.214.905L12 12.891l1.405.964c.634.436 1.463-.182 1.214-.905l-.517-1.503 1.303-.894c.644-.442.327-1.442-.457-1.442h-1.649l-.541-1.574z" fill="#E3000F"/></svg>