<svg width="24" height="24" fill="none" xmlns="http://www.w3.org/2000/svg"><path fill-rule="evenodd" clip-rule="evenodd" d="M17 20.027c1.657 0 3-1.324 3-2.959v-5.155l1-.001h1v5.156C22 19.792 19.762 22 17 22H8c-3.273 0-6-2.615-6-5.869 0-.572.47-1.035 1.05-1.035H7V3.848C7 2.6 8.467 1.913 9.447 2.7l2.386 1.917 1.497-1.924a1.513 1.513 0 012.332-.059l1.665 1.928 2.102-2.115C20.369 1.5 22 2.157 22 3.482v8.43h-2V4.69l-1.244 1.252a2.019 2.019 0 01-2.95-.101L14.54 4.378l-1.121 1.44a2.019 2.019 0 01-2.85.328L9 4.885v10.211h3.95c.58 0 1.05.464 1.05 1.035v.938c0 1.634 1.343 2.959 3 2.959zm-4 0a4.866 4.866 0 01-1-2.958H4.118C4.554 18.76 6.136 20.028 8 20.028h5zm-.05-2.958z" fill="#E3000F"/><path fill-rule="evenodd" clip-rule="evenodd" d="M17 10.165c.552 0 1-.442 1-.986a.993.993 0 00-1-.987h-5c-.552 0-1 .442-1 .987 0 .544.448.986 1 .986h5zm0 3.945c.552 0 1-.442 1-.986a.993.993 0 00-1-.987h-5c-.552 0-1 .442-1 .987 0 .544.448.986 1 .986h5z" fill="#E3000F"/></svg>