<svg width="24" height="24" fill="none" xmlns="http://www.w3.org/2000/svg"><path fill-rule="evenodd" clip-rule="evenodd" d="M3 5.036C3 3.359 4.343 2 6 2h12c1.657 0 3 1.36 3 3.036v10.892a3.04 3.04 0 01-1.658 2.716l-6 3.036a2.968 2.968 0 01-2.684 0l-6-3.036A3.04 3.04 0 013 15.928V5.036zm3-1.012c-.552 0-1 .453-1 1.012v10.892c0 .384.214.734.553.905l6 3.036a.99.99 0 00.894 0l6-3.036c.339-.171.553-.521.553-.905V5.036c0-.559-.448-1.012-1-1.012H6zM12 13a2 2 0 110-4 2 2 0 010 4zm-4-2a4 4 0 118 0 4 4 0 01-8 0z" fill="#E3000F"/></svg>