<svg width="24" height="24" fill="none" xmlns="http://www.w3.org/2000/svg"><path fill-rule="evenodd" clip-rule="evenodd" d="M10.185 2c.555 0 1.004.448 1.004 1v3c0 .552-.45 1-1.004 1a1.002 1.002 0 01-1.004-1V3c0-.552.45-1 1.004-1zM7.071 4c0-.552-.45-1-1.004-1s-1.004.448-1.004 1v2c0 .552.45 1 1.004 1S7.07 6.552 7.07 6V4zm10.914 10h-.644v-3.901c0-.033 0-.066-.002-.099h.646c1.108 0 2.007.895 2.007 2s-.899 2-2.007 2zm-3.681-4h.93a.1.1 0 01.1.099v4.26c0 3.115-2.536 5.641-5.663 5.641-3.128 0-5.663-2.526-5.663-5.641v-4.26a.1.1 0 01.1-.099h10.196zM4.107 8h13.877A4.008 4.008 0 0122 12c0 2.21-1.798 4-4.015 4h-.821a7.667 7.667 0 01-7.493 6C5.434 22 2 18.579 2 14.359v-4.26C2 8.939 2.943 8 4.107 8zm11.2-4c0-.552-.449-1-1.003-1-.555 0-1.004.448-1.004 1v2c0 .552.45 1 1.004 1s1.004-.448 1.004-1V4z" fill="#E3000F"/></svg>