<svg width="30" height="30" fill="none" xmlns="http://www.w3.org/2000/svg"><path fill-rule="evenodd" clip-rule="evenodd" d="M23.75 2.5H6.25A3.75 3.75 0 002.5 6.25v17.5a3.75 3.75 0 003.75 3.75h17.5a3.75 3.75 0 003.75-3.75V6.25a3.75 3.75 0 00-3.75-3.75zM5 6.25C5 5.56 5.56 5 6.25 5h17.5c.69 0 1.25.56 1.25 1.25v17.5c0 .69-.56 1.25-1.25 1.25H6.25C5.56 25 5 24.44 5 23.75V6.25zm15.921 5.845a1.25 1.25 0 10-1.842-1.69l-5.91 6.446L10.96 14.2a1.25 1.25 0 00-1.92 1.6l3.125 3.75a1.25 1.25 0 001.881.045l6.875-7.5z" fill="#E3000F"/></svg>