<svg width="128" height="128" viewBox="0 0 128 128" fill="none" xmlns="http://www.w3.org/2000/svg">
<circle cx="64" cy="64" r="63.5" stroke="white"/>
<circle cx="63.9998" cy="64.0001" r="49.2308" fill="#E3000F"/>
<g clip-path="url(#clip0_49_268)">
<path d="M64.0002 39.3845C50.4056 39.3845 39.3848 50.4052 39.3848 63.9999C39.3848 77.5946 50.4056 88.6153 64.0002 88.6153C77.5947 88.6153 88.6155 77.5946 88.6155 63.9999C88.6155 50.4052 77.5947 39.3845 64.0002 39.3845ZM72.5078 65.3047L60.2001 72.997C59.9511 73.1525 59.6679 73.2307 59.3848 73.2307C59.1282 73.2307 58.8713 73.1668 58.6388 73.0376C58.1498 72.7664 57.8463 72.2518 57.8463 71.6922V56.3076C57.8463 55.748 58.1498 55.2334 58.6388 54.9622C59.1278 54.6895 59.7258 54.7061 60.2001 55.0028L72.5078 62.6951C72.9575 62.9768 73.2309 63.4696 73.2309 63.9999C73.2309 64.5302 72.9575 65.0231 72.5078 65.3047Z" fill="white"/>
</g>
<defs>
<clipPath id="clip0_49_268">
<rect width="49.2308" height="49.2308" fill="white" transform="translate(39.3848 39.3845)"/>
</clipPath>
</defs>
</svg>
