<svg width="215" height="54" fill="none" xmlns="http://www.w3.org/2000/svg"><path d="M155.794 30.331h-11.318l-2.43 6.699 3.696 3.23v.324h-11.26v-.324l5.139-4.238 9.272-25.092-2.802-7.88h10.565l12.587 35.224 3.235 1.986v.324h-17.092v-.324l3.234-1.986-.858-2.41-1.968-5.533zm-.912-2.563l-4.692-13.19-4.785 13.19h9.477zm25.074-7.811c.268-1.103.591-2.222 1.081-3.104.459-.827.862-1.305 1.857-1.363.695-.04 1.012.304 1.512.762 2.128 1.951 6.325 7.168 7.281 8.271l.645-.037 1.258-8.63c-1.051-.53-2.03-1.045-3.402-1.445-2.02-.59-4.276-1.062-7.11-.898-.587.034-1.021.067-1.589.152-6.327.943-10.039 5.865-10.949 11.29-.16.956-.201 1.843-.201 2.809 0 8.142 5.543 13.396 13.396 13.396 5.89 0 9.327-2.307 11.798-7.026l-.572-.51c-1.79 1.214-3.728 1.935-6.153 1.935-3.508 0-6.307-1.844-7.847-4.716-1.49-2.776-1.768-7.753-1.005-10.886zm34.639 17.336l-.013.012a3.434 3.434 0 01-5.992-2.29V15.178h6.179v-1.73h-6.179V2.605l-9.527 2.49v7.766l-4.389 1.386v.933h3.927v17.749c0 6.035 4.44 8.235 8.045 8.235 3.638 0 7.025-1.444 8.354-3.292l-.405-.578z" fill="#E3000F"/><path d="M98.766 35.254a2.98 2.98 0 005.112 1.521v-10.51c-3.753.693-5.312 3.291-5.312 6.986 0 .778.07 1.443.2 2.002zm2.286-19.828c-1.285.444-7.372 8.093-8.564 9.493h-.645l-.986-8.574c1.068-.591 2.064-1.164 3.448-1.644 2.039-.707 4.31-1.311 7.138-1.311 9.181 0 12.424 4.407 12.424 10.123v12.57c0 1.616.924 2.483 2.136 2.483.463 0 1.04-.116 1.676-.347l.173.347c-1.328 1.732-3.464 2.483-6.179 2.483-3.695 0-6.352-1.329-7.333-3.524-1.789 2.137-4.735 3.524-8.026 3.524-4.62 0-7.45-2.542-7.45-6.7 0-5.312 4.62-8.256 15.014-9.008v-5.254c0-1.612-.17-2.75-.485-3.535-.024-.041-.559-1.193-1.827-1.193-.177 0-.35.023-.514.067zm-72.19 10.891l-8.41 12.537h-6.94V5.359l3.29-1.928v-.324H0v.324l3.233 1.928v32.914L0 40.259v.325h29.507V26.317h-.645zm12.131-2.588c0-1.877.241-5.84 1.9-7.647a2.952 2.952 0 012.182-.946c.784 0 1.592.304 2.182.946 1.66 1.807 1.9 5.771 1.9 7.647h-8.163zm15.688.456c0-5.948-4.794-10.683-11.55-10.683-7.16 0-13.396 5.196-13.396 14.263 0 8.141 5.544 13.395 13.396 13.395 5.89 0 9.327-2.306 11.798-7.026l-.572-.508c-1.79 1.212-3.727 1.933-6.152 1.933-5.428 0-9.159-4.415-9.159-10.22H56.68v-1.154zm13.998 6.178v-.002c-.694-1.138-1.082-3.336-1.082-7.215 0-5.659.656-7.844 1.883-8.48l.012-.006.004-.002a1.983 1.983 0 012.543.594l.004.006.003.006.002.002c.778 1.085 1.207 3.39 1.207 7.88 0 3.768-.382 5.953-1.031 7.118l-.002.002a1.987 1.987 0 01-3.543.097zM75.14 42.72c2.599 0 4.33 1.616 4.33 4.1 0 3.117-2.713 5.37-7.333 5.37-4.215 0-6.063-2.714-6.063-6.409 0-1.387.115-2.367.462-3.06h8.604v-.001zM87.901 9.345c-3.638 1.27-6.236 2.829-8.834 5.312-1.79-.75-4.042-1.155-6.64-1.155-8.259 0-12.53 3.464-12.53 9.759 0 3.118 1.27 5.543 3.81 7.102-2.31.981-4.676 2.772-4.676 6.064 0 3.233 1.963 5.484 5.774 6.12-4.447.404-6.814 1.963-6.814 4.85 0 3.638 3.926 5.832 13.973 5.832 8.374 0 15.419-3.638 15.419-10.335 0-4.39-3.06-7.969-8.72-7.969H66.364c-1.732 0-2.714-.81-2.714-2.022 0-.692.347-1.386 1.156-1.963 1.905.923 4.446 1.386 7.564 1.386 8.315 0 12.472-3.463 12.472-9.124 0-3.175-1.212-5.658-3.522-7.332h6.583V9.345h-.002zM130.6 0l-13.223 3.108v.738l3.233 1.986v32.44l-3.233 1.987v.325h16.456v-.325l-3.233-1.986V0zm83.048 45.337l-2.442 3.91v2.577h-1.121v-2.578l-2.45-3.909h1.312l1.721 2.87 1.704-2.87h1.276zm-7.832 4.019c-.06.795-.344 1.43-.851 1.908-.507.477-1.165.715-1.973.715-.917 0-1.651-.31-2.204-.93-.553-.62-.829-1.441-.829-2.468 0-.62.119-1.183.355-1.69a2.942 2.942 0 011.067-1.229c.473-.312 1.028-.469 1.667-.469.686 0 1.284.19 1.794.569.51.38.817.928.92 1.644h-1.13a1.493 1.493 0 00-.546-.915c-.286-.222-.638-.333-1.057-.333-.431 0-.797.121-1.098.365-.3.242-.512.542-.637.897a3.482 3.482 0 00-.187 1.162c0 .316.036.614.11.893.072.28.182.535.327.77.146.233.345.42.597.56.252.139.545.209.879.209.965 0 1.518-.553 1.658-1.658h1.138zm-8.405-4.019v6.486h-1.175l-3.025-4.773v4.774h-1.075v-6.487h1.193l2.988 4.783v-4.783h1.094zm-7.858 0v.957h-3.543v1.722h3.288v.92h-3.288v1.913h3.597v.974h-4.727v-6.486h4.673zm-7.412 3.016v3.47h-.729l-.173-.774c-.517.62-1.19.93-2.023.93-.91 0-1.65-.31-2.218-.93-.567-.62-.852-1.427-.852-2.422 0-.978.286-1.794.857-2.446.571-.653 1.342-.98 2.314-.98.704 0 1.319.198 1.844.592.526.396.825.933.898 1.612h-1.102a1.393 1.393 0 00-.543-.915c-.294-.222-.663-.333-1.106-.333-.625 0-1.117.22-1.475.656-.358.437-.538 1.036-.538 1.794 0 .766.181 1.366.542 1.8.361.434.864.652 1.508.652.565 0 1.001-.176 1.307-.529.306-.351.46-.786.46-1.302h-1.749v-.875h2.778zm-9.972.893l-.966-2.733-1.011 2.733h1.977zm-.365-3.917l2.505 6.495h-1.22l-.62-1.721h-2.57l-.637 1.721h-1.175l2.505-6.495h1.212zm-7.735 3.024v3.47h-.729l-.173-.774c-.516.62-1.19.93-2.022.93-.911 0-1.651-.31-2.218-.93-.568-.62-.852-1.427-.852-2.422 0-.978.286-1.794.856-2.446.571-.653 1.343-.98 2.314-.98.704 0 1.319.198 1.845.592.525.395.824.933.897 1.612h-1.102a1.396 1.396 0 00-.542-.915c-.295-.222-.664-.333-1.107-.333-.625 0-1.117.22-1.476.656-.358.437-.538 1.036-.538 1.794 0 .766.181 1.366.543 1.8.362.434.863.652 1.508.652.564 0 1-.176 1.307-.529.306-.351.46-.786.46-1.302h-1.749v-.875h2.778zm-8.542-3.016v6.486h-1.175l-3.025-4.773v4.774h-1.074v-6.487h1.193l2.988 4.783v-4.783h1.093zm-8.159 0v6.486h-1.148v-6.486h1.148zm-3.431 0v.984h-2.068v5.503h-1.139V46.32h-2.067v-.984h5.274zM137.8 50.84v.983h-4.445v-6.486h1.147v5.503h3.298zm-7.276-5.503v3.973c0 1.761-.88 2.642-2.642 2.642-.917 0-1.593-.219-2.027-.656-.434-.437-.651-1.105-.651-2.005v-3.953h1.138v4.182c0 .996.52 1.494 1.558 1.494.316 0 .575-.043.779-.128a.882.882 0 00.451-.392c.097-.176.163-.366.2-.569.036-.204.055-.457.055-.76v-3.827h1.139zm-8.031 1.914h-1.085c-.066-.758-.537-1.138-1.412-1.138-.388 0-.692.08-.91.241a.775.775 0 00-.328.66c0 .262.08.44.241.538.161.097.518.215 1.07.355.146.043.258.073.337.091.723.182 1.215.346 1.476.492.577.31.865.792.865 1.449 0 .286-.048.543-.146.774a1.676 1.676 0 01-.391.579 2.162 2.162 0 01-.583.387 3.038 3.038 0 01-.701.223 4.057 4.057 0 01-.756.069c-.815 0-1.473-.195-1.978-.583-.504-.39-.756-.96-.756-1.713h1.12c0 .474.155.825.464 1.052.31.228.714.342 1.212.342.438 0 .78-.09 1.025-.269.246-.18.368-.43.368-.752a.686.686 0 00-.195-.505 1.137 1.137 0 00-.424-.278 10.067 10.067 0 00-.793-.227 2.964 2.964 0 00-.1-.028c-.808-.207-1.339-.376-1.594-.51-.528-.273-.811-.695-.848-1.266v-.128c0-.577.217-1.037.651-1.38.435-.343 1.016-.514 1.745-.514.705 0 1.279.167 1.722.5.445.333.679.847.704 1.54zm-7.513-1.914v6.486h-1.175l-3.024-4.773v4.774h-1.075v-6.487h1.193l2.988 4.783v-4.783h1.093zm-10.928.803c-.596 0-1.072.22-1.431.66-.358.44-.538 1.027-.538 1.763 0 .752.178 1.35.534 1.794.354.444.839.665 1.452.665.59 0 1.062-.223 1.417-.67.355-.446.533-1.04.533-1.78 0-.742-.178-1.332-.533-1.772-.355-.44-.834-.66-1.434-.66zm.017-.957c.917 0 1.663.315 2.237.943.573.628.861 1.447.861 2.455 0 1.007-.288 1.826-.865 2.454-.577.628-1.327.943-2.25.943-.93 0-1.681-.313-2.255-.939-.574-.626-.861-1.446-.861-2.46 0-.983.281-1.796.843-2.436.561-.64 1.325-.96 2.29-.96zm-5.344 4.173c-.06.795-.345 1.43-.852 1.908-.507.477-1.165.715-1.972.715-.917 0-1.652-.31-2.204-.93-.553-.62-.83-1.441-.83-2.468 0-.62.12-1.183.356-1.69a2.941 2.941 0 011.066-1.229c.473-.312 1.03-.469 1.667-.469.686 0 1.285.19 1.795.569.51.38.817.928.92 1.644h-1.13a1.49 1.49 0 00-.546-.915c-.286-.222-.638-.333-1.057-.333-.431 0-.797.121-1.097.365-.3.242-.514.542-.638.897a3.487 3.487 0 00-.187 1.162c0 .316.036.614.11.893.072.28.182.535.328.77.145.233.344.42.596.56.252.139.545.209.88.209.965 0 1.518-.553 1.658-1.658h1.137z" fill="#2B2B2B"/></svg>